<mxfile host="app.diagrams.net" modified="2024-05-24T20:45:54.335Z" agent="Mozilla/5.0 (Windows NT 10.0; Win64; x64) AppleWebKit/537.36 (KHTML, like Gecko) Chrome/125.0.0.0 Safari/537.36" etag="n5YO7wEUDJt1cnoxifUz" version="24.4.8" type="github">
  <diagram name="Página-1" id="5dWFfuOaC475zy8L4_NB">
    <mxGraphModel dx="1434" dy="790" grid="1" gridSize="10" guides="1" tooltips="1" connect="1" arrows="1" fold="1" page="1" pageScale="1" pageWidth="827" pageHeight="1169" math="0" shadow="0">
      <root>
        <mxCell id="0" />
        <mxCell id="1" parent="0" />
        <mxCell id="Z--hIBAJicEllJrmKD-w-1" value="Estudar" style="rhombus;whiteSpace=wrap;html=1;" vertex="1" parent="1">
          <mxGeometry x="320" y="70" width="160" height="80" as="geometry" />
        </mxCell>
        <mxCell id="Z--hIBAJicEllJrmKD-w-3" value="Aluno" style="rounded=0;whiteSpace=wrap;html=1;" vertex="1" parent="1">
          <mxGeometry x="120" y="80" width="160" height="60" as="geometry" />
        </mxCell>
        <mxCell id="Z--hIBAJicEllJrmKD-w-4" value="Curso" style="rounded=0;whiteSpace=wrap;html=1;" vertex="1" parent="1">
          <mxGeometry x="570" y="80" width="120" height="60" as="geometry" />
        </mxCell>
        <mxCell id="Z--hIBAJicEllJrmKD-w-5" value="" style="endArrow=none;html=1;rounded=0;entryX=0;entryY=0.5;entryDx=0;entryDy=0;" edge="1" parent="1" target="Z--hIBAJicEllJrmKD-w-4">
          <mxGeometry width="50" height="50" relative="1" as="geometry">
            <mxPoint x="480" y="110" as="sourcePoint" />
            <mxPoint x="530" y="60" as="targetPoint" />
          </mxGeometry>
        </mxCell>
        <mxCell id="Z--hIBAJicEllJrmKD-w-7" value="" style="endArrow=none;html=1;rounded=0;entryX=0;entryY=0.5;entryDx=0;entryDy=0;exitX=1;exitY=0.5;exitDx=0;exitDy=0;" edge="1" parent="1" source="Z--hIBAJicEllJrmKD-w-3" target="Z--hIBAJicEllJrmKD-w-1">
          <mxGeometry width="50" height="50" relative="1" as="geometry">
            <mxPoint x="250" y="120" as="sourcePoint" />
            <mxPoint x="320" y="120" as="targetPoint" />
          </mxGeometry>
        </mxCell>
        <mxCell id="Z--hIBAJicEllJrmKD-w-9" value="" style="ellipse;whiteSpace=wrap;html=1;aspect=fixed;" vertex="1" parent="1">
          <mxGeometry x="110" y="185" width="20" height="20" as="geometry" />
        </mxCell>
        <mxCell id="Z--hIBAJicEllJrmKD-w-12" value="" style="ellipse;whiteSpace=wrap;html=1;aspect=fixed;" vertex="1" parent="1">
          <mxGeometry x="150" y="190" width="20" height="20" as="geometry" />
        </mxCell>
        <mxCell id="Z--hIBAJicEllJrmKD-w-13" value="" style="ellipse;whiteSpace=wrap;html=1;aspect=fixed;" vertex="1" parent="1">
          <mxGeometry x="190" y="190" width="20" height="20" as="geometry" />
        </mxCell>
        <mxCell id="Z--hIBAJicEllJrmKD-w-14" value="" style="ellipse;whiteSpace=wrap;html=1;aspect=fixed;" vertex="1" parent="1">
          <mxGeometry x="230" y="190" width="20" height="20" as="geometry" />
        </mxCell>
        <mxCell id="Z--hIBAJicEllJrmKD-w-15" value="" style="ellipse;whiteSpace=wrap;html=1;aspect=fixed;" vertex="1" parent="1">
          <mxGeometry x="550" y="190" width="20" height="20" as="geometry" />
        </mxCell>
        <mxCell id="Z--hIBAJicEllJrmKD-w-16" value="" style="ellipse;whiteSpace=wrap;html=1;aspect=fixed;" vertex="1" parent="1">
          <mxGeometry x="620" y="190" width="20" height="20" as="geometry" />
        </mxCell>
        <mxCell id="Z--hIBAJicEllJrmKD-w-17" value="" style="ellipse;whiteSpace=wrap;html=1;aspect=fixed;" vertex="1" parent="1">
          <mxGeometry x="690" y="190" width="20" height="20" as="geometry" />
        </mxCell>
        <mxCell id="Z--hIBAJicEllJrmKD-w-18" value="CPF" style="text;strokeColor=none;align=center;fillColor=none;html=1;verticalAlign=middle;whiteSpace=wrap;rounded=0;" vertex="1" parent="1">
          <mxGeometry x="90" y="220" width="60" height="30" as="geometry" />
        </mxCell>
        <mxCell id="Z--hIBAJicEllJrmKD-w-19" value="Nome" style="text;strokeColor=none;align=center;fillColor=none;html=1;verticalAlign=middle;whiteSpace=wrap;rounded=0;" vertex="1" parent="1">
          <mxGeometry x="130" y="240" width="60" height="30" as="geometry" />
        </mxCell>
        <mxCell id="Z--hIBAJicEllJrmKD-w-20" value="Matricula" style="text;strokeColor=none;align=center;fillColor=none;html=1;verticalAlign=middle;whiteSpace=wrap;rounded=0;" vertex="1" parent="1">
          <mxGeometry x="170" y="220" width="60" height="30" as="geometry" />
        </mxCell>
        <mxCell id="Z--hIBAJicEllJrmKD-w-21" value="Data_nascimento" style="text;strokeColor=none;align=center;fillColor=none;html=1;verticalAlign=middle;whiteSpace=wrap;rounded=0;" vertex="1" parent="1">
          <mxGeometry x="215" y="240" width="60" height="30" as="geometry" />
        </mxCell>
        <mxCell id="Z--hIBAJicEllJrmKD-w-22" value="" style="ellipse;whiteSpace=wrap;html=1;aspect=fixed;fillStyle=auto;" vertex="1" parent="1">
          <mxGeometry x="270" y="190" width="20" height="20" as="geometry" />
        </mxCell>
        <mxCell id="Z--hIBAJicEllJrmKD-w-23" value="Email" style="text;strokeColor=none;align=center;fillColor=none;html=1;verticalAlign=middle;whiteSpace=wrap;rounded=0;" vertex="1" parent="1">
          <mxGeometry x="260" y="220" width="60" height="30" as="geometry" />
        </mxCell>
        <mxCell id="Z--hIBAJicEllJrmKD-w-24" value="" style="endArrow=none;html=1;rounded=0;exitX=0.5;exitY=0;exitDx=0;exitDy=0;entryX=0.044;entryY=1.033;entryDx=0;entryDy=0;entryPerimeter=0;" edge="1" parent="1" source="Z--hIBAJicEllJrmKD-w-9" target="Z--hIBAJicEllJrmKD-w-3">
          <mxGeometry width="50" height="50" relative="1" as="geometry">
            <mxPoint x="70" y="190" as="sourcePoint" />
            <mxPoint x="120" y="140" as="targetPoint" />
          </mxGeometry>
        </mxCell>
        <mxCell id="Z--hIBAJicEllJrmKD-w-25" value="" style="endArrow=none;html=1;rounded=0;exitX=0.5;exitY=0;exitDx=0;exitDy=0;entryX=0.25;entryY=1;entryDx=0;entryDy=0;" edge="1" parent="1" source="Z--hIBAJicEllJrmKD-w-12" target="Z--hIBAJicEllJrmKD-w-3">
          <mxGeometry width="50" height="50" relative="1" as="geometry">
            <mxPoint x="130" y="195" as="sourcePoint" />
            <mxPoint x="137" y="152" as="targetPoint" />
          </mxGeometry>
        </mxCell>
        <mxCell id="Z--hIBAJicEllJrmKD-w-26" value="" style="endArrow=none;html=1;rounded=0;entryX=0.5;entryY=1;entryDx=0;entryDy=0;exitX=0.5;exitY=0;exitDx=0;exitDy=0;" edge="1" parent="1" source="Z--hIBAJicEllJrmKD-w-13" target="Z--hIBAJicEllJrmKD-w-3">
          <mxGeometry width="50" height="50" relative="1" as="geometry">
            <mxPoint x="200" y="170" as="sourcePoint" />
            <mxPoint x="147" y="162" as="targetPoint" />
          </mxGeometry>
        </mxCell>
        <mxCell id="Z--hIBAJicEllJrmKD-w-27" value="" style="endArrow=none;html=1;rounded=0;entryX=0.75;entryY=1;entryDx=0;entryDy=0;exitX=0.5;exitY=0;exitDx=0;exitDy=0;" edge="1" parent="1" source="Z--hIBAJicEllJrmKD-w-14" target="Z--hIBAJicEllJrmKD-w-3">
          <mxGeometry width="50" height="50" relative="1" as="geometry">
            <mxPoint x="240" y="170" as="sourcePoint" />
            <mxPoint x="157" y="172" as="targetPoint" />
          </mxGeometry>
        </mxCell>
        <mxCell id="Z--hIBAJicEllJrmKD-w-28" value="" style="endArrow=none;html=1;rounded=0;entryX=1;entryY=1;entryDx=0;entryDy=0;exitX=0.5;exitY=0;exitDx=0;exitDy=0;" edge="1" parent="1" source="Z--hIBAJicEllJrmKD-w-22" target="Z--hIBAJicEllJrmKD-w-3">
          <mxGeometry width="50" height="50" relative="1" as="geometry">
            <mxPoint x="280" y="170" as="sourcePoint" />
            <mxPoint x="167" y="182" as="targetPoint" />
          </mxGeometry>
        </mxCell>
        <mxCell id="Z--hIBAJicEllJrmKD-w-29" value="" style="endArrow=none;html=1;rounded=0;entryX=0;entryY=1;entryDx=0;entryDy=0;exitX=0.5;exitY=0;exitDx=0;exitDy=0;" edge="1" parent="1" source="Z--hIBAJicEllJrmKD-w-15" target="Z--hIBAJicEllJrmKD-w-4">
          <mxGeometry width="50" height="50" relative="1" as="geometry">
            <mxPoint x="390" y="430" as="sourcePoint" />
            <mxPoint x="440" y="380" as="targetPoint" />
          </mxGeometry>
        </mxCell>
        <mxCell id="Z--hIBAJicEllJrmKD-w-30" value="" style="endArrow=none;html=1;rounded=0;entryX=0.5;entryY=1;entryDx=0;entryDy=0;exitX=0.5;exitY=0;exitDx=0;exitDy=0;" edge="1" parent="1" source="Z--hIBAJicEllJrmKD-w-16" target="Z--hIBAJicEllJrmKD-w-4">
          <mxGeometry width="50" height="50" relative="1" as="geometry">
            <mxPoint x="630" y="180" as="sourcePoint" />
            <mxPoint x="440" y="380" as="targetPoint" />
          </mxGeometry>
        </mxCell>
        <mxCell id="Z--hIBAJicEllJrmKD-w-31" value="" style="endArrow=none;html=1;rounded=0;entryX=1;entryY=1;entryDx=0;entryDy=0;exitX=0.5;exitY=0;exitDx=0;exitDy=0;" edge="1" parent="1" source="Z--hIBAJicEllJrmKD-w-17" target="Z--hIBAJicEllJrmKD-w-4">
          <mxGeometry width="50" height="50" relative="1" as="geometry">
            <mxPoint x="390" y="430" as="sourcePoint" />
            <mxPoint x="440" y="380" as="targetPoint" />
          </mxGeometry>
        </mxCell>
        <mxCell id="Z--hIBAJicEllJrmKD-w-32" value="Cod" style="text;strokeColor=none;align=center;fillColor=none;html=1;verticalAlign=middle;whiteSpace=wrap;rounded=0;" vertex="1" parent="1">
          <mxGeometry x="530" y="240" width="60" height="30" as="geometry" />
        </mxCell>
        <mxCell id="Z--hIBAJicEllJrmKD-w-34" value="Nome" style="text;strokeColor=none;align=center;fillColor=none;html=1;verticalAlign=middle;whiteSpace=wrap;rounded=0;" vertex="1" parent="1">
          <mxGeometry x="600" y="230" width="60" height="30" as="geometry" />
        </mxCell>
        <mxCell id="Z--hIBAJicEllJrmKD-w-35" value="Descrição" style="text;strokeColor=none;align=center;fillColor=none;html=1;verticalAlign=middle;whiteSpace=wrap;rounded=0;" vertex="1" parent="1">
          <mxGeometry x="670" y="230" width="60" height="30" as="geometry" />
        </mxCell>
      </root>
    </mxGraphModel>
  </diagram>
</mxfile>
